<svg width="1406" height="370" viewBox="0 0 1406 370" fill="none" xmlns="http://www.w3.org/2000/svg">
<g clip-path="url(#clip0_1_976)">
<rect width="1406" height="370" rx="20" fill="#008000" fill-opacity="0.05"/>
<circle cx="704.742" cy="258.046" r="292" transform="rotate(-47.2933 704.742 258.046)" stroke="#008000" stroke-opacity="0.34"/>
<circle cx="701.629" cy="180.326" r="292" transform="rotate(-47.2933 701.629 180.326)" stroke="#008000" stroke-opacity="0.34"/>
<path d="M329.687 120V73.8H342.371C345.656 73.8 348.708 74.388 351.527 75.564C354.345 76.74 356.809 78.3827 358.919 80.492C361.047 82.6013 362.699 85.056 363.875 87.856C365.069 90.656 365.667 93.68 365.667 96.928C365.667 100.195 365.079 103.228 363.903 106.028C362.727 108.809 361.075 111.255 358.947 113.364C356.837 115.455 354.364 117.088 351.527 118.264C348.708 119.421 345.656 120 342.371 120H329.687ZM338.759 111.88H341.363C343.453 111.88 345.385 111.507 347.159 110.76C348.932 110.013 350.472 108.968 351.779 107.624C353.085 106.28 354.103 104.703 354.831 102.892C355.559 101.063 355.923 99.0653 355.923 96.9C355.923 94.7533 355.559 92.7747 354.831 90.964C354.103 89.1347 353.085 87.548 351.779 86.204C350.472 84.8413 348.932 83.7867 347.159 83.04C345.385 82.2933 343.453 81.92 341.363 81.92H338.759V111.88ZM387.852 120.896C384.697 120.896 381.851 120.252 379.312 118.964C376.773 117.657 374.757 115.865 373.264 113.588C371.771 111.292 371.024 108.651 371.024 105.664C371.024 102.677 371.761 100.045 373.236 97.768C374.729 95.472 376.745 93.68 379.284 92.392C381.841 91.0853 384.697 90.432 387.852 90.432C391.025 90.432 393.881 91.0853 396.42 92.392C398.959 93.68 400.965 95.472 402.44 97.768C403.933 100.045 404.68 102.677 404.68 105.664C404.68 108.651 403.933 111.292 402.44 113.588C400.965 115.865 398.959 117.657 396.42 118.964C393.881 120.252 391.025 120.896 387.852 120.896ZM387.88 113.56C389.336 113.56 390.661 113.224 391.856 112.552C393.051 111.88 393.993 110.956 394.684 109.78C395.375 108.585 395.72 107.213 395.72 105.664C395.72 104.115 395.375 102.752 394.684 101.576C393.993 100.381 393.051 99.448 391.856 98.776C390.661 98.104 389.336 97.768 387.88 97.768C386.405 97.768 385.071 98.104 383.876 98.776C382.7 99.448 381.767 100.381 381.076 101.576C380.385 102.752 380.04 104.115 380.04 105.664C380.04 107.213 380.385 108.585 381.076 109.78C381.767 110.956 382.7 111.88 383.876 112.552C385.071 113.224 386.405 113.56 387.88 113.56ZM421.649 120L406.585 91.328H416.413L424.253 108.548L431.645 91.328H437.497L444.889 108.548L452.729 91.328H462.557L447.493 120H441.725L434.557 103.452L427.389 120H421.649ZM467.252 120V91.328H475.848V94.52C476.949 93.288 478.321 92.2987 479.964 91.552C481.625 90.8053 483.454 90.432 485.452 90.432C487.654 90.432 489.586 90.9173 491.248 91.888C492.928 92.84 494.244 94.1747 495.196 95.892C496.148 97.5907 496.624 99.5787 496.624 101.856V120H488.028V103.676C488.028 101.623 487.486 100.027 486.404 98.888C485.34 97.7307 483.874 97.152 482.008 97.152C480.738 97.152 479.637 97.4133 478.704 97.936C477.789 98.44 477.08 99.14 476.576 100.036C476.09 100.913 475.848 101.912 475.848 103.032V120H467.252ZM506.189 120V71.84H514.785V120H506.189ZM539.172 120.896C536.018 120.896 533.171 120.252 530.632 118.964C528.094 117.657 526.078 115.865 524.584 113.588C523.091 111.292 522.344 108.651 522.344 105.664C522.344 102.677 523.082 100.045 524.556 97.768C526.05 95.472 528.066 93.68 530.604 92.392C533.162 91.0853 536.018 90.432 539.172 90.432C542.346 90.432 545.202 91.0853 547.74 92.392C550.279 93.68 552.286 95.472 553.76 97.768C555.254 100.045 556 102.677 556 105.664C556 108.651 555.254 111.292 553.76 113.588C552.286 115.865 550.279 117.657 547.74 118.964C545.202 120.252 542.346 120.896 539.172 120.896ZM539.2 113.56C540.656 113.56 541.982 113.224 543.176 112.552C544.371 111.88 545.314 110.956 546.004 109.78C546.695 108.585 547.04 107.213 547.04 105.664C547.04 104.115 546.695 102.752 546.004 101.576C545.314 100.381 544.371 99.448 543.176 98.776C541.982 98.104 540.656 97.768 539.2 97.768C537.726 97.768 536.391 98.104 535.196 98.776C534.02 99.448 533.087 100.381 532.396 101.576C531.706 102.752 531.36 104.115 531.36 105.664C531.36 107.213 531.706 108.585 532.396 109.78C533.087 110.956 534.02 111.88 535.196 112.552C536.391 113.224 537.726 113.56 539.2 113.56ZM575.294 120.896C572.662 120.896 570.263 120.243 568.098 118.936C565.951 117.611 564.243 115.8 562.974 113.504C561.723 111.189 561.098 108.557 561.098 105.608C561.098 102.733 561.704 100.157 562.918 97.88C564.131 95.584 565.802 93.7733 567.93 92.448C570.076 91.104 572.531 90.432 575.294 90.432C577.328 90.432 579.223 90.824 580.978 91.608C582.751 92.3733 584.198 93.4467 585.318 94.828V91.328H593.914V120H585.318V116.22C584.011 117.732 582.508 118.889 580.81 119.692C579.111 120.495 577.272 120.896 575.294 120.896ZM577.842 113.588C579.335 113.588 580.66 113.252 581.818 112.58C582.975 111.889 583.88 110.947 584.534 109.752C585.187 108.557 585.514 107.195 585.514 105.664C585.514 104.115 585.178 102.752 584.506 101.576C583.852 100.381 582.947 99.448 581.79 98.776C580.651 98.0853 579.335 97.74 577.842 97.74C576.367 97.74 575.051 98.0853 573.894 98.776C572.736 99.448 571.822 100.381 571.15 101.576C570.478 102.771 570.142 104.133 570.142 105.664C570.142 107.195 570.468 108.557 571.122 109.752C571.794 110.947 572.708 111.889 573.866 112.58C575.023 113.252 576.348 113.588 577.842 113.588ZM615.897 120.896C613.302 120.896 610.932 120.252 608.785 118.964C606.657 117.657 604.958 115.856 603.689 113.56C602.42 111.264 601.785 108.632 601.785 105.664C601.785 102.752 602.401 100.157 603.633 97.88C604.865 95.584 606.554 93.7733 608.701 92.448C610.866 91.104 613.34 90.432 616.121 90.432C618.137 90.432 620.004 90.824 621.721 91.608C623.438 92.3733 624.866 93.4467 626.005 94.828V71.84H634.601V120H626.005V116.22C624.736 117.695 623.233 118.843 621.497 119.664C619.761 120.485 617.894 120.896 615.897 120.896ZM618.473 113.588C619.985 113.588 621.32 113.252 622.477 112.58C623.634 111.889 624.54 110.947 625.193 109.752C625.865 108.557 626.201 107.204 626.201 105.692C626.201 104.161 625.865 102.799 625.193 101.604C624.54 100.409 623.634 99.4667 622.477 98.776C621.32 98.0853 619.994 97.74 618.501 97.74C617.026 97.74 615.71 98.0853 614.553 98.776C613.414 99.4667 612.509 100.419 611.837 101.632C611.165 102.827 610.829 104.189 610.829 105.72C610.829 107.232 611.156 108.585 611.809 109.78C612.462 110.956 613.368 111.889 614.525 112.58C615.682 113.252 616.998 113.588 618.473 113.588ZM346.809 183.896C344.177 183.896 341.778 183.243 339.613 181.936C337.466 180.611 335.758 178.8 334.489 176.504C333.238 174.189 332.613 171.557 332.613 168.608C332.613 165.733 333.22 163.157 334.433 160.88C335.646 158.584 337.317 156.773 339.445 155.448C341.592 154.104 344.046 153.432 346.809 153.432C348.844 153.432 350.738 153.824 352.493 154.608C354.266 155.373 355.713 156.447 356.833 157.828V154.328H365.429V183H356.833V179.22C355.526 180.732 354.024 181.889 352.325 182.692C350.626 183.495 348.788 183.896 346.809 183.896ZM349.357 176.588C350.85 176.588 352.176 176.252 353.333 175.58C354.49 174.889 355.396 173.947 356.049 172.752C356.702 171.557 357.029 170.195 357.029 168.664C357.029 167.115 356.693 165.752 356.021 164.576C355.368 163.381 354.462 162.448 353.305 161.776C352.166 161.085 350.85 160.74 349.357 160.74C347.882 160.74 346.566 161.085 345.409 161.776C344.252 162.448 343.337 163.381 342.665 164.576C341.993 165.771 341.657 167.133 341.657 168.664C341.657 170.195 341.984 171.557 342.637 172.752C343.309 173.947 344.224 174.889 345.381 175.58C346.538 176.252 347.864 176.588 349.357 176.588ZM375.541 183V154.328H384.137V157.52C385.238 156.288 386.61 155.299 388.253 154.552C389.914 153.805 391.743 153.432 393.741 153.432C395.943 153.432 397.875 153.917 399.537 154.888C401.217 155.84 402.533 157.175 403.485 158.892C404.437 160.591 404.913 162.579 404.913 164.856V183H396.317V166.676C396.317 164.623 395.775 163.027 394.693 161.888C393.629 160.731 392.163 160.152 390.297 160.152C389.027 160.152 387.926 160.413 386.993 160.936C386.078 161.44 385.369 162.14 384.865 163.036C384.379 163.913 384.137 164.912 384.137 166.032V183H375.541ZM426.35 183.896C423.755 183.896 421.385 183.252 419.238 181.964C417.11 180.657 415.411 178.856 414.142 176.56C412.873 174.264 412.238 171.632 412.238 168.664C412.238 165.752 412.854 163.157 414.086 160.88C415.318 158.584 417.007 156.773 419.154 155.448C421.319 154.104 423.793 153.432 426.574 153.432C428.59 153.432 430.457 153.824 432.174 154.608C433.891 155.373 435.319 156.447 436.458 157.828V134.84H445.054V183H436.458V179.22C435.189 180.695 433.686 181.843 431.95 182.664C430.214 183.485 428.347 183.896 426.35 183.896ZM428.926 176.588C430.438 176.588 431.773 176.252 432.93 175.58C434.087 174.889 434.993 173.947 435.646 172.752C436.318 171.557 436.654 170.204 436.654 168.692C436.654 167.161 436.318 165.799 435.646 164.604C434.993 163.409 434.087 162.467 432.93 161.776C431.773 161.085 430.447 160.74 428.954 160.74C427.479 160.74 426.163 161.085 425.006 161.776C423.867 162.467 422.962 163.419 422.29 164.632C421.618 165.827 421.282 167.189 421.282 168.72C421.282 170.232 421.609 171.585 422.262 172.78C422.915 173.956 423.821 174.889 424.978 175.58C426.135 176.252 427.451 176.588 428.926 176.588ZM470.231 183V154.328H478.827V183H470.231ZM474.543 148.364C473.61 148.364 472.751 148.14 471.967 147.692C471.202 147.225 470.586 146.6 470.119 145.816C469.653 145.032 469.419 144.173 469.419 143.24C469.419 142.307 469.653 141.457 470.119 140.692C470.586 139.927 471.202 139.32 471.967 138.872C472.751 138.405 473.61 138.172 474.543 138.172C475.477 138.172 476.326 138.405 477.091 138.872C477.857 139.32 478.463 139.927 478.911 140.692C479.378 141.457 479.611 142.307 479.611 143.24C479.611 144.173 479.378 145.032 478.911 145.816C478.463 146.6 477.857 147.225 477.091 147.692C476.326 148.14 475.477 148.364 474.543 148.364ZM488.963 183V154.328H497.559V157.52C498.66 156.288 500.032 155.299 501.675 154.552C503.336 153.805 505.165 153.432 507.163 153.432C509.365 153.432 511.297 153.917 512.959 154.888C514.639 155.84 515.955 157.175 516.907 158.892C517.859 160.591 518.335 162.579 518.335 164.856V183H509.739V166.676C509.739 164.623 509.197 163.027 508.115 161.888C507.051 160.731 505.585 160.152 503.719 160.152C502.449 160.152 501.348 160.413 500.415 160.936C499.5 161.44 498.791 162.14 498.287 163.036C497.801 163.913 497.559 164.912 497.559 166.032V183H488.963ZM537.532 183L522.468 154.328H532.604L540.416 171.632L548.228 154.328H558.364L543.272 183H537.532ZM576.676 183.896C573.577 183.896 570.796 183.233 568.332 181.908C565.887 180.564 563.945 178.744 562.508 176.448C561.071 174.152 560.352 171.557 560.352 168.664C560.352 166.536 560.753 164.548 561.556 162.7C562.377 160.852 563.516 159.237 564.972 157.856C566.428 156.456 568.117 155.373 570.04 154.608C571.963 153.824 574.044 153.432 576.284 153.432C579.271 153.432 581.884 154.057 584.124 155.308C586.383 156.54 588.137 158.257 589.388 160.46C590.657 162.663 591.292 165.229 591.292 168.16C591.292 168.403 591.283 168.617 591.264 168.804C591.264 168.972 591.236 169.299 591.18 169.784H569.2C569.2 171.24 569.527 172.509 570.18 173.592C570.852 174.675 571.785 175.524 572.98 176.14C574.175 176.737 575.565 177.036 577.152 177.036C578.645 177.036 579.961 176.747 581.1 176.168C582.257 175.589 583.368 174.665 584.432 173.396L590.62 176.504C589.276 178.819 587.372 180.629 584.908 181.936C582.444 183.243 579.7 183.896 576.676 183.896ZM569.508 165.024H582.836C582.649 163.923 582.248 162.971 581.632 162.168C581.035 161.365 580.269 160.749 579.336 160.32C578.403 159.891 577.348 159.676 576.172 159.676C574.921 159.676 573.82 159.891 572.868 160.32C571.916 160.749 571.151 161.365 570.572 162.168C569.993 162.971 569.639 163.923 569.508 165.024ZM606.95 183.896C604.523 183.896 602.348 183.513 600.426 182.748C598.522 181.983 596.935 180.863 595.666 179.388L599.278 173.62C600.472 174.889 601.723 175.86 603.03 176.532C604.336 177.204 605.643 177.54 606.95 177.54C607.678 177.54 608.303 177.419 608.826 177.176C609.367 176.933 609.787 176.588 610.086 176.14C610.403 175.673 610.562 175.113 610.562 174.46C610.562 173.713 610.347 173.125 609.918 172.696C609.507 172.267 608.872 171.875 608.014 171.52C607.155 171.147 606.044 170.68 604.682 170.12C603.524 169.635 602.414 169.084 601.35 168.468C600.286 167.852 599.418 167.068 598.746 166.116C598.092 165.164 597.766 163.96 597.766 162.504C597.766 160.731 598.26 159.172 599.25 157.828C600.239 156.465 601.602 155.401 603.338 154.636C605.092 153.871 607.108 153.488 609.386 153.488C610.804 153.488 612.288 153.703 613.838 154.132C615.406 154.561 617.076 155.215 618.85 156.092L615.91 161.608C613.502 160.059 611.346 159.284 609.442 159.284C608.378 159.284 607.528 159.517 606.894 159.984C606.259 160.451 605.942 161.039 605.942 161.748C605.942 162.42 606.268 163.008 606.922 163.512C607.594 163.997 608.406 164.436 609.358 164.828C610.328 165.201 611.252 165.547 612.13 165.864C613.567 166.387 614.836 166.965 615.938 167.6C617.058 168.235 617.935 169.065 618.57 170.092C619.204 171.1 619.522 172.453 619.522 174.152C619.522 176.224 619.018 177.988 618.01 179.444C617.02 180.881 615.583 181.983 613.698 182.748C611.831 183.513 609.582 183.896 606.95 183.896ZM636.878 183.896C634.022 183.896 631.8 182.991 630.214 181.18C628.627 179.351 627.834 176.803 627.834 173.536V160.852H623.998V154.328H627.834V143.576H636.43V154.328H642.73V160.852H636.43V172.92C636.43 174.003 636.644 174.824 637.074 175.384C637.522 175.944 638.147 176.224 638.95 176.224C639.846 176.224 640.704 175.925 641.526 175.328L643.682 182.216C642.711 182.739 641.619 183.149 640.406 183.448C639.211 183.747 638.035 183.896 636.878 183.896ZM666.177 183V154.328H674.773V183H666.177ZM670.489 148.364C669.555 148.364 668.697 148.14 667.913 147.692C667.147 147.225 666.531 146.6 666.065 145.816C665.598 145.032 665.365 144.173 665.365 143.24C665.365 142.307 665.598 141.457 666.065 140.692C666.531 139.927 667.147 139.32 667.913 138.872C668.697 138.405 669.555 138.172 670.489 138.172C671.422 138.172 672.271 138.405 673.037 138.872C673.802 139.32 674.409 139.927 674.857 140.692C675.323 141.457 675.557 142.307 675.557 143.24C675.557 144.173 675.323 145.032 674.857 145.816C674.409 146.6 673.802 147.225 673.037 147.692C672.271 148.14 671.422 148.364 670.489 148.364ZM684.908 183V154.328H693.504V157.52C694.605 156.288 695.977 155.299 697.62 154.552C699.281 153.805 701.111 153.432 703.108 153.432C705.311 153.432 707.243 153.917 708.904 154.888C710.584 155.84 711.9 157.175 712.852 158.892C713.804 160.591 714.28 162.579 714.28 164.856V183H705.684V166.676C705.684 164.623 705.143 163.027 704.06 161.888C702.996 160.731 701.531 160.152 699.664 160.152C698.395 160.152 697.293 160.413 696.36 160.936C695.445 161.44 694.736 162.14 694.232 163.036C693.747 163.913 693.504 164.912 693.504 166.032V183H684.908ZM737.435 197.56L746.703 179.416L733.067 154.328H742.923L751.715 171.128L759.331 154.328H769.187L747.263 197.56H737.435ZM788.055 183.896C784.9 183.896 782.054 183.252 779.515 181.964C776.976 180.657 774.96 178.865 773.467 176.588C771.974 174.292 771.227 171.651 771.227 168.664C771.227 165.677 771.964 163.045 773.439 160.768C774.932 158.472 776.948 156.68 779.487 155.392C782.044 154.085 784.9 153.432 788.055 153.432C791.228 153.432 794.084 154.085 796.623 155.392C799.162 156.68 801.168 158.472 802.643 160.768C804.136 163.045 804.883 165.677 804.883 168.664C804.883 171.651 804.136 174.292 802.643 176.588C801.168 178.865 799.162 180.657 796.623 181.964C794.084 183.252 791.228 183.896 788.055 183.896ZM788.083 176.56C789.539 176.56 790.864 176.224 792.059 175.552C793.254 174.88 794.196 173.956 794.887 172.78C795.578 171.585 795.923 170.213 795.923 168.664C795.923 167.115 795.578 165.752 794.887 164.576C794.196 163.381 793.254 162.448 792.059 161.776C790.864 161.104 789.539 160.768 788.083 160.768C786.608 160.768 785.274 161.104 784.079 161.776C782.903 162.448 781.97 163.381 781.279 164.576C780.588 165.752 780.243 167.115 780.243 168.664C780.243 170.213 780.588 171.585 781.279 172.78C781.97 173.956 782.903 174.88 784.079 175.552C785.274 176.224 786.608 176.56 788.083 176.56ZM826.55 183.896C821.323 183.896 817.552 182.86 815.238 180.788C812.923 178.716 811.766 175.328 811.766 170.624V154.328H820.362V168.608C820.362 171.632 820.828 173.769 821.762 175.02C822.714 176.271 824.31 176.896 826.55 176.896C828.827 176.896 830.423 176.271 831.338 175.02C832.271 173.769 832.738 171.632 832.738 168.608V154.328H841.334V170.624C841.334 175.328 840.176 178.716 837.862 180.788C835.566 182.86 831.795 183.896 826.55 183.896ZM850.775 183V154.328H859.371V158.444C860.435 156.839 861.732 155.607 863.263 154.748C864.812 153.871 866.474 153.432 868.247 153.432C869.255 153.432 870.3 153.581 871.383 153.88C872.466 154.179 873.371 154.561 874.099 155.028L870.515 162.28C869.88 161.851 869.134 161.515 868.275 161.272C867.435 161.011 866.651 160.88 865.923 160.88C864.803 160.88 863.739 161.169 862.731 161.748C861.723 162.327 860.911 163.083 860.295 164.016C859.679 164.931 859.371 165.92 859.371 166.984V183H850.775ZM895.21 183V160.852H891.374V154.328H895.21V147.216C895.21 144.528 895.63 142.195 896.47 140.216C897.329 138.219 898.542 136.688 900.11 135.624C901.678 134.541 903.573 134 905.794 134C907.175 134 908.529 134.215 909.854 134.644C911.179 135.055 912.309 135.633 913.242 136.38L910.274 142.4C909.397 141.859 908.398 141.588 907.278 141.588C906.307 141.588 905.57 141.84 905.066 142.344C904.581 142.829 904.245 143.511 904.058 144.388C903.89 145.247 903.806 146.255 903.806 147.412V154.328H910.582V160.852H903.806V183H895.21ZM931.003 183.896C925.776 183.896 922.006 182.86 919.691 180.788C917.376 178.716 916.219 175.328 916.219 170.624V154.328H924.815V168.608C924.815 171.632 925.282 173.769 926.215 175.02C927.167 176.271 928.763 176.896 931.003 176.896C933.28 176.896 934.876 176.271 935.791 175.02C936.724 173.769 937.191 171.632 937.191 168.608V154.328H945.787V170.624C945.787 175.328 944.63 178.716 942.315 180.788C940.019 182.86 936.248 183.896 931.003 183.896ZM964.839 183.896C961.983 183.896 959.761 182.991 958.175 181.18C956.588 179.351 955.795 176.803 955.795 173.536V160.852H951.959V154.328H955.795V143.576H964.391V154.328H970.691V160.852H964.391V172.92C964.391 174.003 964.605 174.824 965.035 175.384C965.483 175.944 966.108 176.224 966.911 176.224C967.807 176.224 968.665 175.925 969.487 175.328L971.643 182.216C970.672 182.739 969.58 183.149 968.367 183.448C967.172 183.747 965.996 183.896 964.839 183.896ZM993.128 183.896C987.901 183.896 984.131 182.86 981.816 180.788C979.501 178.716 978.344 175.328 978.344 170.624V154.328H986.94V168.608C986.94 171.632 987.407 173.769 988.34 175.02C989.292 176.271 990.888 176.896 993.128 176.896C995.405 176.896 997.001 176.271 997.916 175.02C998.849 173.769 999.316 171.632 999.316 168.608V154.328H1007.91V170.624C1007.91 175.328 1006.75 178.716 1004.44 180.788C1002.14 182.86 998.373 183.896 993.128 183.896ZM1017.35 183V154.328H1025.95V158.444C1027.01 156.839 1028.31 155.607 1029.84 154.748C1031.39 153.871 1033.05 153.432 1034.83 153.432C1035.83 153.432 1036.88 153.581 1037.96 153.88C1039.04 154.179 1039.95 154.561 1040.68 155.028L1037.09 162.28C1036.46 161.851 1035.71 161.515 1034.85 161.272C1034.01 161.011 1033.23 160.88 1032.5 160.88C1031.38 160.88 1030.32 161.169 1029.31 161.748C1028.3 162.327 1027.49 163.083 1026.87 164.016C1026.26 164.931 1025.95 165.92 1025.95 166.984V183H1017.35ZM1058.91 183.896C1055.81 183.896 1053.03 183.233 1050.57 181.908C1048.12 180.564 1046.18 178.744 1044.74 176.448C1043.31 174.152 1042.59 171.557 1042.59 168.664C1042.59 166.536 1042.99 164.548 1043.79 162.7C1044.61 160.852 1045.75 159.237 1047.21 157.856C1048.66 156.456 1050.35 155.373 1052.27 154.608C1054.2 153.824 1056.28 153.432 1058.52 153.432C1061.51 153.432 1064.12 154.057 1066.36 155.308C1068.62 156.54 1070.37 158.257 1071.62 160.46C1072.89 162.663 1073.53 165.229 1073.53 168.16C1073.53 168.403 1073.52 168.617 1073.5 168.804C1073.5 168.972 1073.47 169.299 1073.41 169.784H1051.43C1051.43 171.24 1051.76 172.509 1052.41 173.592C1053.09 174.675 1054.02 175.524 1055.21 176.14C1056.41 176.737 1057.8 177.036 1059.39 177.036C1060.88 177.036 1062.2 176.747 1063.33 176.168C1064.49 175.589 1065.6 174.665 1066.67 173.396L1072.85 176.504C1071.51 178.819 1069.61 180.629 1067.14 181.936C1064.68 183.243 1061.93 183.896 1058.91 183.896ZM1051.74 165.024H1065.07C1064.88 163.923 1064.48 162.971 1063.87 162.168C1063.27 161.365 1062.5 160.749 1061.57 160.32C1060.64 159.891 1059.58 159.676 1058.41 159.676C1057.16 159.676 1056.05 159.891 1055.1 160.32C1054.15 160.749 1053.39 161.365 1052.81 162.168C1052.23 162.971 1051.87 163.923 1051.74 165.024Z" fill="#263238"/>
<path d="M661.038 120V73.8H686.994V81.752H667.926L670.11 79.764V95.388L667.926 92.868H685.734V100.82H667.926L670.11 98.3V120H661.038ZM705.067 120.896C702.435 120.896 700.036 120.243 697.871 118.936C695.724 117.611 694.016 115.8 692.747 113.504C691.496 111.189 690.871 108.557 690.871 105.608C690.871 102.733 691.478 100.157 692.691 97.88C693.904 95.584 695.575 93.7733 697.703 92.448C699.85 91.104 702.304 90.432 705.067 90.432C707.102 90.432 708.996 90.824 710.751 91.608C712.524 92.3733 713.971 93.4467 715.091 94.828V91.328H723.687V120H715.091V116.22C713.784 117.732 712.282 118.889 710.583 119.692C708.884 120.495 707.046 120.896 705.067 120.896ZM707.615 113.588C709.108 113.588 710.434 113.252 711.591 112.58C712.748 111.889 713.654 110.947 714.307 109.752C714.96 108.557 715.287 107.195 715.287 105.664C715.287 104.115 714.951 102.752 714.279 101.576C713.626 100.381 712.72 99.448 711.563 98.776C710.424 98.0853 709.108 97.74 707.615 97.74C706.14 97.74 704.824 98.0853 703.667 98.776C702.51 99.448 701.595 100.381 700.923 101.576C700.251 102.771 699.915 104.133 699.915 105.664C699.915 107.195 700.242 108.557 700.895 109.752C701.567 110.947 702.482 111.889 703.639 112.58C704.796 113.252 706.122 113.588 707.615 113.588ZM733.798 120V91.328H742.394V95.444C743.458 93.8387 744.756 92.6067 746.286 91.748C747.836 90.8707 749.497 90.432 751.27 90.432C752.278 90.432 753.324 90.5813 754.406 90.88C755.489 91.1787 756.394 91.5613 757.122 92.028L753.538 99.28C752.904 98.8507 752.157 98.5147 751.298 98.272C750.458 98.0107 749.674 97.88 748.946 97.88C747.826 97.88 746.762 98.1693 745.754 98.748C744.746 99.3267 743.934 100.083 743.318 101.016C742.702 101.931 742.394 102.92 742.394 103.984V120H733.798ZM761.908 120V91.328H770.504V94.52C771.923 93.1013 773.332 92.0653 774.732 91.412C776.132 90.7587 777.644 90.432 779.268 90.432C781.471 90.432 783.459 90.9267 785.232 91.916C787.005 92.9053 788.275 94.2307 789.04 95.892C790.44 94.0813 791.943 92.7187 793.548 91.804C795.153 90.8893 796.992 90.432 799.064 90.432C801.136 90.432 802.975 90.8613 804.58 91.72C806.185 92.5787 807.445 93.8013 808.36 95.388C809.293 96.956 809.76 98.8133 809.76 100.96V120H801.164V103.312C801.164 101.445 800.679 99.98 799.708 98.916C798.737 97.8333 797.44 97.292 795.816 97.292C794.696 97.292 793.707 97.5253 792.848 97.992C792.008 98.4587 791.345 99.084 790.86 99.868C790.375 100.652 790.132 101.52 790.132 102.472V120H781.536V103.144C781.536 101.371 781.06 99.952 780.108 98.888C779.175 97.824 777.877 97.292 776.216 97.292C775.115 97.292 774.125 97.5253 773.248 97.992C772.389 98.4587 771.717 99.0933 771.232 99.896C770.747 100.699 770.504 101.585 770.504 102.556V120H761.908ZM834.223 120L814.847 73.8H825.095L837.779 106.364L850.491 73.8H860.711L841.335 120H834.223ZM876.09 120.896C872.991 120.896 870.21 120.233 867.746 118.908C865.301 117.564 863.359 115.744 861.922 113.448C860.485 111.152 859.766 108.557 859.766 105.664C859.766 103.536 860.167 101.548 860.97 99.7C861.791 97.852 862.93 96.2373 864.386 94.856C865.842 93.456 867.531 92.3733 869.454 91.608C871.377 90.824 873.458 90.432 875.698 90.432C878.685 90.432 881.298 91.0573 883.538 92.308C885.797 93.54 887.551 95.2573 888.802 97.46C890.071 99.6627 890.706 102.229 890.706 105.16C890.706 105.403 890.697 105.617 890.678 105.804C890.678 105.972 890.65 106.299 890.594 106.784H868.614C868.614 108.24 868.941 109.509 869.594 110.592C870.266 111.675 871.199 112.524 872.394 113.14C873.589 113.737 874.979 114.036 876.566 114.036C878.059 114.036 879.375 113.747 880.514 113.168C881.671 112.589 882.782 111.665 883.846 110.396L890.034 113.504C888.69 115.819 886.786 117.629 884.322 118.936C881.858 120.243 879.114 120.896 876.09 120.896ZM868.922 102.024H882.25C882.063 100.923 881.662 99.9707 881.046 99.168C880.449 98.3653 879.683 97.7493 878.75 97.32C877.817 96.8907 876.762 96.676 875.586 96.676C874.335 96.676 873.234 96.8907 872.282 97.32C871.33 97.7493 870.565 98.3653 869.986 99.168C869.407 99.9707 869.053 100.923 868.922 102.024ZM906.364 120.896C903.937 120.896 901.762 120.513 899.84 119.748C897.936 118.983 896.349 117.863 895.08 116.388L898.692 110.62C899.886 111.889 901.137 112.86 902.444 113.532C903.75 114.204 905.057 114.54 906.364 114.54C907.092 114.54 907.717 114.419 908.24 114.176C908.781 113.933 909.201 113.588 909.5 113.14C909.817 112.673 909.976 112.113 909.976 111.46C909.976 110.713 909.761 110.125 909.332 109.696C908.921 109.267 908.286 108.875 907.428 108.52C906.569 108.147 905.458 107.68 904.096 107.12C902.938 106.635 901.828 106.084 900.764 105.468C899.7 104.852 898.832 104.068 898.16 103.116C897.506 102.164 897.18 100.96 897.18 99.504C897.18 97.7307 897.674 96.172 898.664 94.828C899.653 93.4653 901.016 92.4013 902.752 91.636C904.506 90.8707 906.522 90.488 908.8 90.488C910.218 90.488 911.702 90.7027 913.252 91.132C914.82 91.5613 916.49 92.2147 918.264 93.092L915.324 98.608C912.916 97.0587 910.76 96.284 908.856 96.284C907.792 96.284 906.942 96.5173 906.308 96.984C905.673 97.4507 905.356 98.0387 905.356 98.748C905.356 99.42 905.682 100.008 906.336 100.512C907.008 100.997 907.82 101.436 908.772 101.828C909.742 102.201 910.666 102.547 911.544 102.864C912.981 103.387 914.25 103.965 915.352 104.6C916.472 105.235 917.349 106.065 917.984 107.092C918.618 108.1 918.936 109.453 918.936 111.152C918.936 113.224 918.432 114.988 917.424 116.444C916.434 117.881 914.997 118.983 913.112 119.748C911.245 120.513 908.996 120.896 906.364 120.896ZM936.292 120.896C933.436 120.896 931.215 119.991 929.628 118.18C928.041 116.351 927.248 113.803 927.248 110.536V97.852H923.412V91.328H927.248V80.576H935.844V91.328H942.144V97.852H935.844V109.92C935.844 111.003 936.059 111.824 936.488 112.384C936.936 112.944 937.561 113.224 938.364 113.224C939.26 113.224 940.119 112.925 940.94 112.328L943.096 119.216C942.125 119.739 941.033 120.149 939.82 120.448C938.625 120.747 937.449 120.896 936.292 120.896ZM977.575 120.896C974.943 120.896 972.544 120.243 970.379 118.936C968.232 117.611 966.524 115.8 965.255 113.504C964.004 111.189 963.379 108.557 963.379 105.608C963.379 102.733 963.985 100.157 965.199 97.88C966.412 95.584 968.083 93.7733 970.211 92.448C972.357 91.104 974.812 90.432 977.575 90.432C979.609 90.432 981.504 90.824 983.259 91.608C985.032 92.3733 986.479 93.4467 987.599 94.828V91.328H996.195V120H987.599V116.22C986.292 117.732 984.789 118.889 983.091 119.692C981.392 120.495 979.553 120.896 977.575 120.896ZM980.123 113.588C981.616 113.588 982.941 113.252 984.099 112.58C985.256 111.889 986.161 110.947 986.815 109.752C987.468 108.557 987.795 107.195 987.795 105.664C987.795 104.115 987.459 102.752 986.787 101.576C986.133 100.381 985.228 99.448 984.071 98.776C982.932 98.0853 981.616 97.74 980.123 97.74C978.648 97.74 977.332 98.0853 976.175 98.776C975.017 99.448 974.103 100.381 973.431 101.576C972.759 102.771 972.423 104.133 972.423 105.664C972.423 107.195 972.749 108.557 973.403 109.752C974.075 110.947 974.989 111.889 976.147 112.58C977.304 113.252 978.629 113.588 980.123 113.588ZM1006.31 134.56V91.328H1014.9V94.828C1016.06 93.428 1017.5 92.3453 1019.21 91.58C1020.93 90.8147 1022.78 90.432 1024.76 90.432C1027.52 90.432 1029.98 91.0947 1032.12 92.42C1034.29 93.7453 1035.99 95.556 1037.22 97.852C1038.47 100.148 1039.09 102.752 1039.09 105.664C1039.09 108.539 1038.48 111.133 1037.25 113.448C1036.01 115.744 1034.32 117.564 1032.18 118.908C1030.05 120.233 1027.64 120.896 1024.95 120.896C1022.99 120.896 1021.15 120.495 1019.41 119.692C1017.67 118.871 1016.17 117.713 1014.9 116.22V134.56H1006.31ZM1022.41 113.588C1023.9 113.588 1025.22 113.252 1026.35 112.58C1027.51 111.889 1028.42 110.956 1029.07 109.78C1029.72 108.585 1030.05 107.223 1030.05 105.692C1030.05 104.161 1029.71 102.799 1029.04 101.604C1028.37 100.409 1027.46 99.4667 1026.33 98.776C1025.19 98.0853 1023.88 97.74 1022.41 97.74C1020.93 97.74 1019.61 98.0853 1018.43 98.776C1017.27 99.4667 1016.36 100.409 1015.69 101.604C1015.01 102.78 1014.68 104.143 1014.68 105.692C1014.68 107.204 1015 108.557 1015.66 109.752C1016.33 110.947 1017.25 111.889 1018.43 112.58C1019.61 113.252 1020.93 113.588 1022.41 113.588ZM1046.99 134.56V91.328H1055.59V94.828C1056.75 93.428 1058.18 92.3453 1059.9 91.58C1061.62 90.8147 1063.47 90.432 1065.45 90.432C1068.21 90.432 1070.66 91.0947 1072.81 92.42C1074.98 93.7453 1076.67 95.556 1077.91 97.852C1079.16 100.148 1079.78 102.752 1079.78 105.664C1079.78 108.539 1079.17 111.133 1077.93 113.448C1076.7 115.744 1075.01 117.564 1072.87 118.908C1070.74 120.233 1068.33 120.896 1065.64 120.896C1063.68 120.896 1061.83 120.495 1060.1 119.692C1058.36 118.871 1056.86 117.713 1055.59 116.22V134.56H1046.99ZM1063.09 113.588C1064.59 113.588 1065.9 113.252 1067.04 112.58C1068.2 111.889 1069.1 110.956 1069.76 109.78C1070.41 108.585 1070.74 107.223 1070.74 105.692C1070.74 104.161 1070.4 102.799 1069.73 101.604C1069.06 100.409 1068.15 99.4667 1067.01 98.776C1065.88 98.0853 1064.57 97.74 1063.09 97.74C1061.62 97.74 1060.29 98.0853 1059.12 98.776C1057.96 99.4667 1057.05 100.409 1056.37 101.604C1055.7 102.78 1055.37 104.143 1055.37 105.692C1055.37 107.204 1055.69 108.557 1056.35 109.752C1057.02 110.947 1057.94 111.889 1059.12 112.58C1060.29 113.252 1061.62 113.588 1063.09 113.588Z" fill="#008000"/>
<path fill-rule="evenodd" clip-rule="evenodd" d="M872.78 247.828H724.952C716.129 247.828 714.66 250.886 714.66 258.16V294.071C714.66 301.339 717.682 304.338 724.942 304.338H872.78C880.045 304.338 883.174 301.335 883.174 294.062V258.16C883.174 250.886 880.045 247.828 872.78 247.828Z" fill="black"/>
<path d="M797.452 280.24C794.34 280.24 791.876 282.577 791.876 285.822C791.876 288.938 794.34 291.404 797.452 291.404C800.565 291.404 803.029 289.067 803.029 285.822C803.029 282.447 800.565 280.24 797.452 280.24ZM797.452 289.067C795.767 289.067 794.34 287.639 794.34 285.692C794.34 283.745 795.767 282.317 797.452 282.317C799.138 282.317 800.565 283.615 800.565 285.692C800.565 287.639 799.138 289.067 797.452 289.067ZM785.393 280.24C782.28 280.24 779.816 282.577 779.816 285.822C779.816 288.938 782.28 291.404 785.393 291.404C788.505 291.404 790.969 289.067 790.969 285.822C790.969 282.447 788.505 280.24 785.393 280.24ZM785.393 289.067C783.707 289.067 782.28 287.639 782.28 285.692C782.28 283.745 783.707 282.317 785.393 282.317C787.078 282.317 788.505 283.615 788.505 285.692C788.505 287.639 787.078 289.067 785.393 289.067ZM770.998 281.927V284.264H776.574C776.445 285.562 775.926 286.601 775.278 287.25C774.5 288.029 773.203 288.938 770.998 288.938C767.497 288.938 764.903 286.211 764.903 282.706C764.903 279.201 767.627 276.475 770.998 276.475C772.814 276.475 774.24 277.254 775.278 278.163L776.963 276.475C775.537 275.177 773.721 274.138 771.128 274.138C766.46 274.138 762.439 278.033 762.439 282.706C762.439 287.38 766.459 291.275 771.128 291.275C773.721 291.275 775.537 290.495 777.093 288.808C778.649 287.25 779.168 285.043 779.168 283.355C779.168 282.836 779.168 282.317 779.038 281.927H770.998ZM829.872 283.745C829.353 282.447 828.056 280.24 825.204 280.24C822.351 280.24 820.017 282.447 820.017 285.822C820.017 288.938 822.351 291.404 825.463 291.404C827.927 291.404 829.483 289.846 830.002 288.938L828.186 287.639C827.538 288.548 826.76 289.197 825.463 289.197C824.166 289.197 823.388 288.678 822.74 287.51L830.131 284.394L829.872 283.745ZM822.351 285.562C822.351 283.485 824.037 282.317 825.204 282.317C826.111 282.317 827.019 282.836 827.279 283.485L822.351 285.562ZM816.256 290.885H818.72V274.657H816.256V290.885ZM812.366 281.408C811.717 280.759 810.68 280.11 809.383 280.11C806.66 280.11 804.066 282.576 804.066 285.692C804.066 288.808 806.53 291.145 809.383 291.145C810.68 291.145 811.717 290.495 812.236 289.846H812.366V290.625C812.366 292.702 811.198 293.871 809.383 293.871C807.956 293.871 806.919 292.832 806.66 291.923L804.585 292.832C805.233 294.26 806.789 296.078 809.513 296.078C812.366 296.078 814.7 294.39 814.7 290.365V280.499H812.366V281.408ZM809.513 289.067C807.827 289.067 806.4 287.639 806.4 285.692C806.4 283.745 807.827 282.317 809.513 282.317C811.198 282.317 812.495 283.745 812.495 285.692C812.495 287.639 811.198 289.067 809.513 289.067ZM841.154 274.657H835.318V290.885H837.782V284.783H841.154C843.877 284.783 846.471 282.836 846.471 279.72C846.471 276.605 843.877 274.657 841.154 274.657ZM841.284 282.447H837.782V276.864H841.284C843.099 276.864 844.137 278.422 844.137 279.59C844.007 281.019 842.969 282.447 841.284 282.447ZM856.197 280.11C854.381 280.11 852.566 280.889 851.917 282.577L854.122 283.485C854.641 282.577 855.419 282.317 856.326 282.317C857.623 282.317 858.79 283.096 858.92 284.394V284.524C858.531 284.264 857.493 283.875 856.456 283.875C854.122 283.875 851.788 285.173 851.788 287.51C851.788 289.717 853.733 291.145 855.808 291.145C857.493 291.145 858.272 290.366 858.92 289.587H859.05V290.885H861.384V284.654C861.125 281.798 858.92 280.11 856.197 280.11ZM855.937 289.067C855.159 289.067 853.992 288.678 853.992 287.639C853.992 286.341 855.419 285.952 856.586 285.952C857.623 285.952 858.142 286.211 858.79 286.471C858.531 288.029 857.234 289.067 855.937 289.067ZM869.553 280.499L866.83 287.51H866.701L863.848 280.499H861.254L865.534 290.365L863.07 295.818H865.534L872.147 280.499H869.553ZM847.768 290.885H850.232V274.657H847.768V290.885Z" fill="white"/>
<path d="M766.961 265.018H771.001C771.025 265.111 771.044 265.222 771.059 265.353C771.074 265.483 771.082 265.614 771.082 265.744C771.082 266.274 771.001 266.774 770.84 267.242C770.679 267.711 770.426 268.13 770.081 268.498C769.712 268.89 769.271 269.194 768.757 269.409C768.243 269.624 767.656 269.731 766.996 269.731C766.397 269.731 765.833 269.624 765.304 269.409C764.774 269.194 764.314 268.894 763.922 268.51C763.531 268.126 763.22 267.671 762.99 267.144C762.76 266.618 762.645 266.044 762.645 265.422C762.645 264.799 762.76 264.225 762.99 263.699C763.22 263.173 763.531 262.718 763.922 262.333C764.314 261.949 764.774 261.65 765.304 261.435C765.833 261.22 766.397 261.112 766.996 261.112C767.663 261.112 768.26 261.227 768.786 261.458C769.311 261.688 769.762 262.007 770.138 262.414L769.068 263.463C768.799 263.179 768.5 262.961 768.17 262.812C767.84 262.662 767.445 262.587 766.984 262.587C766.608 262.587 766.251 262.654 765.914 262.788C765.576 262.923 765.28 263.113 765.027 263.359C764.774 263.605 764.573 263.903 764.423 264.252C764.273 264.602 764.199 264.992 764.199 265.422C764.199 265.852 764.273 266.242 764.423 266.591C764.573 266.941 764.776 267.238 765.033 267.484C765.29 267.73 765.587 267.92 765.925 268.055C766.263 268.189 766.623 268.256 767.007 268.256C767.445 268.256 767.815 268.193 768.118 268.066C768.421 267.94 768.68 267.776 768.895 267.577C769.048 267.438 769.181 267.264 769.292 267.052C769.403 266.841 769.49 266.605 769.551 266.343H766.961V265.018Z" fill="white"/>
<path d="M773.925 262.771V264.684H777.229V266.159H773.925V268.072H777.597V269.547H772.371V261.296H777.597V262.771H773.925Z" fill="white"/>
<path d="M780.775 269.547V262.771H778.473V261.296H784.631V262.771H782.329V269.547H780.775Z" fill="white"/>
<path d="M789.822 261.296H788.268V269.547H789.822V261.296Z" fill="white"/>
<path d="M793.23 269.547V262.771H790.928V261.296H797.086V262.771H794.784V269.547H793.23Z" fill="white"/>
<path d="M804.395 269.732C803.781 269.732 803.211 269.62 802.686 269.397C802.16 269.175 801.705 268.869 801.322 268.481C800.938 268.093 800.637 267.636 800.418 267.11C800.199 266.584 800.09 266.021 800.09 265.422C800.09 264.822 800.199 264.26 800.418 263.734C800.637 263.207 800.938 262.75 801.322 262.362C801.705 261.974 802.16 261.669 802.686 261.446C803.211 261.223 803.781 261.112 804.395 261.112C805.009 261.112 805.579 261.223 806.105 261.446C806.63 261.669 807.085 261.974 807.469 262.362C807.852 262.75 808.153 263.207 808.372 263.734C808.591 264.26 808.7 264.822 808.7 265.422C808.7 266.021 808.591 266.584 808.372 267.11C808.153 267.636 807.852 268.093 807.469 268.481C807.085 268.869 806.63 269.175 806.105 269.397C805.579 269.62 805.009 269.732 804.395 269.732ZM804.395 268.256C804.779 268.256 805.138 268.187 805.471 268.049C805.805 267.911 806.097 267.719 806.346 267.473C806.595 267.227 806.791 266.929 806.933 266.58C807.075 266.23 807.146 265.844 807.146 265.422C807.146 264.999 807.075 264.613 806.933 264.264C806.791 263.914 806.595 263.617 806.346 263.371C806.097 263.125 805.805 262.933 805.471 262.794C805.137 262.656 804.779 262.587 804.395 262.587C804.011 262.587 803.653 262.656 803.319 262.794C802.985 262.933 802.693 263.125 802.444 263.371C802.194 263.617 801.999 263.914 801.857 264.264C801.715 264.613 801.644 264.999 801.644 265.422C801.644 265.844 801.715 266.23 801.857 266.58C801.999 266.929 802.194 267.227 802.444 267.473C802.693 267.719 802.985 267.911 803.319 268.049C803.653 268.187 804.011 268.256 804.395 268.256Z" fill="white"/>
<path d="M809.955 261.296H811.762L815.077 266.828H815.17L815.077 265.237V261.296H816.62V269.547H814.985L811.486 263.705H811.394L811.486 265.295V269.547H809.955V261.296Z" fill="white"/>
<path fill-rule="evenodd" clip-rule="evenodd" d="M750.644 271.107L730.473 259.489L746.406 275.358L750.644 271.107Z" fill="white"/>
<path fill-rule="evenodd" clip-rule="evenodd" d="M728.6 259.607C728.523 259.747 728.439 259.909 728.439 260.087V292.964C728.439 293.067 728.493 293.164 728.521 293.255L745.394 276.333L728.6 259.607Z" fill="white"/>
<path fill-rule="evenodd" clip-rule="evenodd" d="M746.408 277.305L729.865 293.896C729.914 293.877 729.962 293.855 730.009 293.828L750.911 281.789L746.408 277.305Z" fill="white"/>
<path fill-rule="evenodd" clip-rule="evenodd" d="M758.55 275.66L751.881 271.819L747.383 276.329L752.15 281.077L758.55 277.39C759.216 277.007 759.216 276.044 758.55 275.66Z" fill="white"/>
<path fill-rule="evenodd" clip-rule="evenodd" d="M678.638 247H531.26C522.464 247 521 250.085 521 257.421V293.644C521 300.975 524.013 304 531.25 304H678.638C685.881 304 689 300.971 689 293.635V257.421C689 250.085 685.881 247 678.638 247Z" fill="black"/>
<path fill-rule="evenodd" clip-rule="evenodd" d="M564.801 282.48C563.955 284.38 563.55 285.228 562.461 286.907C560.94 289.251 558.798 292.17 556.144 292.194C553.784 292.216 553.178 290.639 549.977 290.657C546.776 290.675 546.107 292.222 543.748 292.2C541.093 292.175 539.063 289.539 537.543 287.196C533.292 280.641 532.848 272.95 535.469 268.861C537.332 265.955 540.271 264.253 543.035 264.253C545.848 264.253 547.617 265.817 549.944 265.817C552.2 265.817 553.576 264.251 556.828 264.251C559.287 264.251 561.893 265.607 563.749 267.952C557.667 271.329 558.655 280.128 564.801 282.48Z" fill="white"/>
<path fill-rule="evenodd" clip-rule="evenodd" d="M554.361 261.633C555.542 260.097 556.441 257.926 556.115 255.709C554.185 255.844 551.926 257.088 550.607 258.71C549.41 260.182 548.422 262.366 548.807 264.489C550.915 264.555 553.095 263.28 554.361 261.633Z" fill="white"/>
<path fill-rule="evenodd" clip-rule="evenodd" d="M673.999 285.559H665.452C665.486 286.732 665.899 287.761 666.693 288.436C667.412 289.043 668.343 289.32 669.487 289.32C670.755 289.32 671.904 289.103 672.943 288.687L673.391 290.686C672.182 291.225 670.746 291.483 669.089 291.483C667.107 291.483 665.546 290.892 664.411 289.709C663.278 288.525 662.707 286.934 662.707 284.941C662.707 282.979 663.237 281.352 664.289 280.047C665.402 278.66 666.896 277.966 668.775 277.966C670.626 277.966 672.023 278.659 672.969 280.046C673.722 281.154 674.103 282.572 674.103 284.193C674.103 284.705 674.066 285.224 673.999 285.559ZM661.855 280.796C661.689 280.744 661.25 280.723 660.936 280.723C659.934 280.723 659.151 281.105 658.605 281.869C658.129 282.547 657.882 283.389 657.882 284.431V291.091H655.068V282.342C655.068 280.855 655.007 279.524 654.957 278.182H657.436L657.542 280.865H657.619C657.917 280.026 658.389 279.264 659.044 278.752C659.677 278.283 660.388 278.029 661.126 278.029C661.386 278.029 661.689 278.012 661.855 278.047V280.796ZM651.556 289.564C650.374 290.878 648.81 291.536 646.862 291.536C644.978 291.536 643.475 290.904 642.359 289.64C641.244 288.379 640.688 286.779 640.688 284.858C640.688 282.847 641.262 281.198 642.414 279.917C643.567 278.63 645.114 277.998 647.066 277.998C648.954 277.998 650.465 278.623 651.608 279.894C652.695 281.116 653.24 282.706 653.24 284.645C653.24 286.645 652.681 288.277 651.556 289.564ZM639.841 280.529H636.861V286.731C636.861 288.333 637.352 289.127 638.46 289.127C638.97 289.127 639.354 289.089 639.692 289.001L639.756 291.187C639.192 291.4 638.446 291.509 637.532 291.509C636.412 291.509 635.497 291.166 634.866 290.466C634.227 289.775 633.882 288.607 633.882 286.969V280.529H632.061V278.182H633.882V275.883L636.861 275.028V278.182H639.841V280.529ZM629.829 289.931C628.666 290.984 627.054 291.507 624.985 291.507C623.068 291.507 621.536 291.131 620.378 290.386L621.04 287.982C622.287 288.727 623.658 289.105 625.149 289.105C626.226 289.105 627.059 288.857 627.658 288.371C628.252 287.883 628.551 287.229 628.551 286.399C628.551 285.679 628.305 285.064 627.816 284.562C627.319 284.065 626.508 283.605 625.363 283.174C622.255 282.002 620.697 280.283 620.697 278.022C620.697 276.544 621.24 275.329 622.341 274.386C623.44 273.445 624.895 272.971 626.708 272.971C628.325 272.971 629.671 273.258 630.745 273.824L630.026 276.176C629.024 275.626 627.885 275.347 626.615 275.347C625.611 275.347 624.824 275.605 624.257 276.092C623.784 276.544 623.546 277.087 623.546 277.726C623.546 278.433 623.819 279.024 624.363 279.494C624.839 279.919 625.701 280.38 626.945 280.878C628.48 281.496 629.601 282.231 630.324 283.07C631.043 283.907 631.406 284.947 631.406 286.192C631.405 287.725 630.876 288.975 629.829 289.931ZM613.372 289.831C612.31 290.966 610.986 291.536 609.41 291.536C607.714 291.536 606.572 290.923 605.744 289.689V296.624H602.93V282.525C602.93 281.137 602.878 279.859 602.809 278.182H605.308L605.473 280.362H605.522C606.478 278.853 607.915 278.021 609.849 278.021C611.362 278.021 612.623 278.609 613.634 279.823C614.648 281.031 615.152 282.623 615.152 284.599C615.152 286.813 614.56 288.546 613.372 289.831ZM599.289 289.831C598.23 290.966 596.908 291.536 595.337 291.536C593.636 291.536 592.503 290.923 591.675 289.689V296.624H588.861V282.525C588.861 281.137 588.796 279.859 588.724 278.182H591.23L591.387 280.362H591.437C592.391 278.853 593.83 278.021 595.767 278.021C597.279 278.021 598.537 278.609 599.555 279.823C600.562 281.031 601.069 282.623 601.069 284.599C601.069 286.813 600.477 288.546 599.289 289.831ZM584.057 291.091L582.397 285.894H576.619L575.035 291.091H572.084L577.802 273.153H581.34L587.092 291.091H584.057ZM668.564 279.966C667.634 279.966 666.879 280.449 666.296 281.227C665.822 281.849 665.538 282.541 665.452 283.547H671.386C671.401 282.541 671.221 281.879 670.835 281.252C670.34 280.454 669.582 279.966 668.564 279.966ZM579.493 275.668H579.444C579.264 276.506 578.987 277.622 578.597 279.119L577.12 283.882H581.892L580.395 279.119C580.233 278.636 579.93 277.344 579.493 275.668ZM608.927 280.287C608.221 280.287 607.59 280.521 607.017 280.993C606.445 281.471 606.06 282.09 605.883 282.856C605.795 283.215 605.744 283.506 605.744 283.739V285.9C605.744 286.845 606.036 287.645 606.609 288.295C607.18 288.939 607.929 289.266 608.839 289.266C609.917 289.266 610.753 288.85 611.352 288.011C611.951 287.173 612.253 286.07 612.253 284.695C612.253 283.434 611.97 282.391 611.409 281.574C610.789 280.723 609.962 280.287 608.927 280.287ZM646.962 280.108C645.822 280.108 644.951 280.62 644.356 281.652C643.841 282.5 643.588 283.537 643.588 284.763C643.588 285.958 643.841 286.976 644.356 287.827C644.965 288.857 645.828 289.369 646.94 289.369C648.023 289.369 648.88 288.85 649.492 287.795C650.023 286.933 650.288 285.899 650.288 284.713C650.288 283.525 650.033 282.5 649.527 281.651C648.921 280.62 648.071 280.108 646.962 280.108ZM594.84 280.287C594.138 280.287 593.504 280.521 592.931 280.993C592.358 281.471 591.984 282.09 591.807 282.856C591.721 283.215 591.675 283.506 591.675 283.739V285.9C591.675 286.845 591.958 287.645 592.533 288.295C593.103 288.939 593.848 289.266 594.761 289.266C595.831 289.266 596.673 288.85 597.27 288.011C597.867 287.173 598.164 286.07 598.164 284.695C598.164 283.434 597.886 282.391 597.323 281.574C596.704 280.723 595.879 280.287 594.84 280.287Z" fill="white"/>
<path d="M575.837 266.085L575.047 268.718H573.318L576.259 259.425H578.396L581.377 268.718H579.58L578.75 266.085H575.837ZM578.464 264.803L577.743 262.514C577.566 261.949 577.416 261.314 577.28 260.777H577.253C577.116 261.314 576.98 261.962 576.817 262.514L576.109 264.803H578.464Z" fill="white"/>
<path d="M583.283 262.004L584.359 265.409C584.549 266.002 584.685 266.54 584.808 267.092H584.849C584.971 266.54 585.121 266.016 585.298 265.409L586.346 262.004H588.116L585.584 268.719H583.937L581.473 262.004H583.283Z" fill="white"/>
<path d="M592.787 268.719L592.678 267.974H592.637C592.229 268.498 591.534 268.87 590.677 268.87C589.343 268.87 588.594 267.891 588.594 266.871C588.594 265.175 590.078 264.32 592.528 264.334V264.224C592.528 263.782 592.351 263.052 591.18 263.052C590.527 263.052 589.846 263.258 589.397 263.548L589.07 262.445C589.56 262.142 590.418 261.852 591.466 261.852C593.59 261.852 594.202 263.217 594.202 264.679V267.105C594.202 267.712 594.23 268.305 594.298 268.719H592.787ZM592.569 265.437C591.385 265.409 590.255 265.671 590.255 266.692C590.255 267.354 590.677 267.657 591.207 267.657C591.874 267.657 592.365 267.216 592.514 266.733C592.555 266.609 592.569 266.471 592.569 266.361V265.437Z" fill="white"/>
<path d="M597.661 258.929H595.973V268.719H597.661V258.929Z" fill="white"/>
<path d="M601.253 260.129C601.253 260.639 600.886 261.039 600.301 261.039C599.742 261.039 599.375 260.639 599.375 260.129C599.375 259.605 599.756 259.205 600.314 259.205C600.886 259.205 601.24 259.605 601.253 260.129ZM599.47 262.004H601.158V268.719H599.47V262.004Z" fill="white"/>
<path d="M602.9 268.719C602.928 268.264 602.955 267.519 602.955 266.83V258.929H604.629V262.928H604.657C605.065 262.28 605.786 261.852 606.78 261.852C608.4 261.852 609.557 263.217 609.543 265.258C609.543 267.671 608.032 268.871 606.535 268.871C605.677 268.871 604.915 268.54 604.439 267.712H604.411L604.329 268.719H602.9ZM604.629 265.947C604.629 266.085 604.643 266.223 604.67 266.347C604.847 267.023 605.432 267.533 606.154 267.533C607.202 267.533 607.842 266.678 607.842 265.327C607.842 264.141 607.284 263.176 606.167 263.176C605.487 263.176 604.874 263.672 604.684 264.417C604.657 264.541 604.629 264.693 604.629 264.858V265.947Z" fill="white"/>
<path d="M612.608 258.929H610.92V268.719H612.608V258.929Z" fill="white"/>
<path d="M615.602 265.837C615.643 267.05 616.583 267.574 617.644 267.574C618.42 267.574 618.979 267.464 619.482 267.271L619.727 268.443C619.155 268.677 618.366 268.856 617.413 268.856C615.262 268.856 613.996 267.519 613.996 265.465C613.996 263.603 615.112 261.852 617.236 261.852C619.387 261.852 620.095 263.645 620.095 265.12C620.095 265.437 620.068 265.685 620.04 265.837H615.602ZM618.516 264.651C618.529 264.031 618.257 263.01 617.141 263.01C616.106 263.01 615.67 263.962 615.602 264.651H618.516Z" fill="white"/>
<path d="M630.563 265.299C630.563 267.767 628.847 268.87 627.159 268.87C625.281 268.87 623.838 267.56 623.838 265.41C623.838 263.203 625.267 261.852 627.268 261.852C629.242 261.852 630.563 263.259 630.563 265.299ZM625.567 265.368C625.567 266.664 626.193 267.643 627.214 267.643C628.167 267.643 628.834 266.692 628.834 265.34C628.834 264.293 628.371 263.093 627.228 263.093C626.043 263.093 625.567 264.251 625.567 265.368Z" fill="white"/>
<path d="M631.939 264.003C631.939 263.231 631.925 262.583 631.885 262.004H633.355L633.437 263.01H633.477C633.763 262.486 634.485 261.852 635.587 261.852C636.744 261.852 637.943 262.61 637.943 264.734V268.719H636.268V264.927C636.268 263.962 635.914 263.231 635.002 263.231C634.335 263.231 633.872 263.713 633.695 264.224C633.641 264.375 633.627 264.582 633.627 264.775V268.719H631.94V264.003H631.939Z" fill="white"/>
<path d="M644.464 260.087V262.004H646.056V263.273H644.464V266.237C644.464 267.05 644.681 267.478 645.321 267.478C645.607 267.478 645.825 267.436 645.975 267.395L646.002 268.691C645.757 268.788 645.321 268.857 644.79 268.857C644.177 268.857 643.66 268.65 643.347 268.305C642.993 267.919 642.83 267.312 642.83 266.43V263.273H641.877V262.004H642.83V260.487L644.464 260.087Z" fill="white"/>
<path d="M647.322 258.929H649.01V262.928H649.038C649.242 262.611 649.514 262.349 649.868 262.156C650.195 261.963 650.589 261.852 651.011 261.852C652.141 261.852 653.325 262.611 653.325 264.762V268.719H651.651V264.955C651.651 263.976 651.297 263.245 650.372 263.245C649.718 263.245 649.255 263.686 649.078 264.196C649.024 264.334 649.01 264.514 649.01 264.706V268.719H647.322V258.929H647.322Z" fill="white"/>
<path d="M656.294 265.837C656.335 267.05 657.274 267.574 658.336 267.574C659.112 267.574 659.67 267.464 660.174 267.271L660.419 268.443C659.847 268.677 659.057 268.856 658.104 268.856C655.954 268.856 654.688 267.519 654.688 265.465C654.688 263.603 655.804 261.852 657.927 261.852C660.078 261.852 660.786 263.645 660.786 265.12C660.786 265.437 660.759 265.685 660.732 265.837H656.294ZM659.207 264.651C659.221 264.031 658.948 263.01 657.832 263.01C656.798 263.01 656.362 263.962 656.294 264.651H659.207Z" fill="white"/>
</g>
<defs>
<clipPath id="clip0_1_976">
<rect width="1406" height="370" rx="20" fill="white"/>
</clipPath>
</defs>
</svg>
